<svg width="22" height="23" viewBox="0 0 22 23" fill="none" xmlns="http://www.w3.org/2000/svg">
<path fill-rule="evenodd" clip-rule="evenodd" d="M5.07541 6.06232C5.07541 9.15092 7.58322 11.663 10.6667 11.663C13.7501 11.663 16.2575 9.151 16.2575 6.06232C16.2575 2.97326 13.7502 0.461182 10.6667 0.461182C7.58345 0.461182 5.07541 2.97349 5.07541 6.06232ZM15.4027 6.06233C15.4027 8.67805 13.278 10.8066 10.6667 10.8066C8.05535 10.8066 5.93029 8.67795 5.93029 6.06233C5.93029 3.44648 8.05558 1.31758 10.6667 1.31758C13.278 1.31758 15.4027 3.44621 15.4027 6.06233ZM10.6781 12.0128C15.7247 12.0128 20.015 15.7986 20.6594 20.8195C20.692 21.0711 20.6148 21.3247 20.4459 21.518C20.278 21.7073 20.0371 21.8162 19.7844 21.8162H1.54903C1.29589 21.8162 1.05476 21.7074 0.885395 21.5156C0.718662 21.3247 0.641446 21.0711 0.673992 20.82C1.25811 16.2692 4.8391 12.6816 9.38103 12.097C9.81213 12.0412 10.2487 12.0128 10.6781 12.0128ZM10.6666 12.8615C15.0989 12.8615 19.4951 16.4592 19.4951 20.8714H1.77804C1.77804 16.4592 6.23432 12.8615 10.6666 12.8615Z" fill="black"/>
<path d="M20.6594 20.8195L20.213 20.8768L20.2131 20.8773L20.6594 20.8195ZM20.4459 21.518L20.7826 21.8166L20.7848 21.814L20.4459 21.518ZM0.885395 21.5156L0.546472 21.8116L0.548021 21.8133L0.885395 21.5156ZM0.673992 20.82L1.12026 20.8779L1.12033 20.8773L0.673992 20.82ZM9.38103 12.097L9.43848 12.5433L9.43876 12.5433L9.38103 12.097ZM19.4951 20.8714V21.3214H19.9451V20.8714H19.4951ZM1.77804 20.8714H1.32804V21.3214H1.77804V20.8714ZM10.6667 11.213C7.83247 11.213 5.52541 8.90311 5.52541 6.06232H4.62541C4.62541 9.39873 7.33398 12.113 10.6667 12.113V11.213ZM15.8075 6.06232C15.8075 8.90322 13.5008 11.213 10.6667 11.213V12.113C13.9994 12.113 16.7075 9.39877 16.7075 6.06232H15.8075ZM10.6667 0.911182C13.5009 0.911182 15.8075 3.221 15.8075 6.06232H16.7075C16.7075 2.72552 13.9995 0.0111817 10.6667 0.0111817V0.911182ZM5.52541 6.06232C5.52541 3.22128 7.83272 0.911182 10.6667 0.911182V0.0111817C7.33418 0.0111817 4.62541 2.7257 4.62541 6.06232H5.52541ZM10.6667 11.2566C13.5272 11.2566 15.8527 8.92582 15.8527 6.06233H14.9527C14.9527 8.43027 13.0287 10.3566 10.6667 10.3566V11.2566ZM5.48029 6.06233C5.48029 8.92577 7.80612 11.2566 10.6667 11.2566V10.3566C8.30459 10.3566 6.38029 8.43013 6.38029 6.06233H5.48029ZM10.6667 0.867576C7.80632 0.867576 5.48029 3.19869 5.48029 6.06233H6.38029C6.38029 3.69426 8.30485 1.76758 10.6667 1.76758V0.867576ZM15.8527 6.06233C15.8527 3.19848 13.5273 0.867576 10.6667 0.867576V1.76758C13.0287 1.76758 14.9527 3.69395 14.9527 6.06233H15.8527ZM21.1057 20.7622C20.4326 15.5178 15.9522 11.5628 10.6781 11.5628V12.4628C15.4972 12.4628 19.5973 16.0793 20.213 20.8768L21.1057 20.7622ZM20.7848 21.814C21.0377 21.5245 21.155 21.1424 21.1056 20.7617L20.2131 20.8773C20.229 20.9999 20.1918 21.1249 20.107 21.2219L20.7848 21.814ZM19.7844 22.2662C20.1666 22.2662 20.5298 22.1016 20.7826 21.8165L20.1092 21.2194C20.0262 21.313 19.9076 21.3662 19.7844 21.3662V22.2662ZM1.54903 22.2662H19.7844V21.3662H1.54903V22.2662ZM0.548021 21.8133C0.802314 22.1014 1.16607 22.2662 1.54903 22.2662V21.3662C1.42572 21.3662 1.3072 21.3134 1.22277 21.2178L0.548021 21.8133ZM0.227724 20.7622C0.178546 21.1417 0.295207 21.5239 0.546477 21.8116L1.22431 21.2195C1.14212 21.1254 1.10435 21.0006 1.12026 20.8779L0.227724 20.7622ZM9.32358 11.6507C4.57807 12.2615 0.837762 16.0094 0.227654 20.7627L1.12033 20.8773C1.67846 16.529 5.10013 13.1017 9.43848 12.5433L9.32358 11.6507ZM10.6781 11.5628C10.2291 11.5628 9.77324 11.5925 9.32329 11.6507L9.43876 12.5433C9.85101 12.49 10.2683 12.4628 10.6781 12.4628V11.5628ZM19.9451 20.8714C19.9451 18.5103 18.7693 16.3916 17.0398 14.8736C15.3113 13.3565 13.0006 12.4115 10.6666 12.4115V13.3115C12.7649 13.3115 14.8684 14.1653 16.4461 15.5501C18.0228 16.934 19.0451 18.8203 19.0451 20.8714H19.9451ZM1.77804 21.3214H19.4951V20.4214H1.77804V21.3214ZM10.6666 12.4115C8.33305 12.4115 6.00795 13.3562 4.26488 14.8723C2.5209 16.3893 1.32804 18.5081 1.32804 20.8714H2.22804C2.22804 18.8225 3.26331 16.9363 4.85554 15.5514C6.44868 14.1656 8.56785 13.3115 10.6666 13.3115V12.4115Z" fill="#4A4A4A"/>
</svg>
