<?xml version="1.0" encoding="utf-8"?>
<!-- Generator: Adobe Illustrator 16.0.0, SVG Export Plug-In . SVG Version: 6.00 Build 0)  -->
<!DOCTYPE svg PUBLIC "-//W3C//DTD SVG 1.1//EN" "http://www.w3.org/Graphics/SVG/1.1/DTD/svg11.dtd">
<svg version="1.1" id="레이어_1" xmlns="http://www.w3.org/2000/svg" xmlns:xlink="http://www.w3.org/1999/xlink" x="0px"
	 y="0px" width="200px" height="200px" viewBox="0 0 200 200" enable-background="new 0 0 200 200" xml:space="preserve">
<path fill-rule="evenodd" clip-rule="evenodd" fill="#D53B3B" d="M100.021,18.186c39.251,0.365,72.683,27.938,80.216,66.658
	c0.951,4.882,1.105,9.934,1.398,14.921c0.184,3.096-1.988,5.287-4.822,5.359c-2.863,0.072-4.943-1.951-5.027-5.153
	c-0.314-12.261-2.904-23.946-9.119-34.607c-12.287-21.078-30.51-33.583-54.794-36.443c-34.136-4.021-66.742,17.692-76.525,50.494
	c-12.083,40.514,13.386,82.869,54.814,90.98c4.307,0.844,8.753,1.043,13.148,1.338c3.521,0.234,5.639,1.926,5.676,4.965
	c0.038,3.096-2.163,5.184-5.716,5.115c-18.167-0.346-34.598-5.867-48.97-17.025c-17.158-13.32-27.704-30.801-30.931-52.262
	c-3.692-24.554,2.69-46.548,18.769-65.508c12.624-14.886,28.779-23.882,47.963-27.319C90.685,18.877,95.379,18.673,100.021,18.186z"
	/>
</svg>
