<?xml version="1.0" encoding="utf-8"?>
<!-- Generator: Adobe Illustrator 23.0.2, SVG Export Plug-In . SVG Version: 6.00 Build 0)  -->
<svg version="1.1" id="Ebene_1" xmlns="http://www.w3.org/2000/svg" xmlns:xlink="http://www.w3.org/1999/xlink" x="0px" y="0px"
	 viewBox="0 0 300 61" style="enable-background:new 0 0 300 61;" xml:space="preserve">
<style type="text/css">
	.st0{fill:#343434;}
</style>
<g>
	<g>
		<path class="st0" d="M41,52.2V21.9L29.5,52.2h-5.1L12.7,21.9V52H1V6.5h16.4l9.6,25.2l9.4-25.2h16.4v45.7H41z"/>
		<path class="st0" d="M56.8,35.6c0-10.3,7.6-17.2,18-17.2c7.2,0,11.5,3.1,13.5,6.2l-6.8,6.4c-1.2-1.8-3.5-3.1-6.2-3.1
			c-4.3,0-7.8,3.1-7.8,8s3.3,8,7.8,8c2.9,0,4.9-1.4,6.2-3.3l6.8,6.4C86.3,49.8,82,53,74.8,53C64.6,53,56.8,45.9,56.8,35.6z"/>
		<path class="st0" d="M135.3,52.2V21.9l-11.5,30.3h-5.1L107,21.9V52H95.1V6.5h16.4l9.6,25.2l9.4-25.2H147v45.7H135.3z"/>
		<path class="st0" d="M172.8,52.2v-3.3c-2.1,2.5-5.9,4.1-10.3,4.1c-5.1,0-11.3-3.5-11.3-10.9c0-8,6.4-10.7,11.3-10.7
			c4.3,0,8.2,1.4,10.3,3.9v-3.3c0-2.9-2.5-4.9-6.8-4.9c-3.3,0-6.6,1.2-9.2,3.5l-3.9-7.4c4.3-3.7,9.8-5.1,15-5.1
			c8,0,15.4,2.9,15.4,13.1V52h-10.5V52.2z M172.8,43.6v-2.9c-1-1.6-3.5-2.3-5.9-2.3c-2.7,0-5.3,1.2-5.3,3.9s2.5,3.9,5.3,3.9
			C169.2,46.1,171.6,45.3,172.8,43.6z"/>
		<path class="st0" d="M209.1,52.2l-7.4-11.7l-3.1,3.7v8h-10.5V6.5h10.5v25.8l10-13.1h12.7l-12.1,15l12.7,18H209.1z"/>
		<path class="st0" d="M224.9,52.2V6.5h10.5v45.7H224.9z"/>
		<path class="st0" d="M239.3,35.6c0-9.6,7.2-17.2,17.4-17.2c9.8,0,16.8,7.2,16.8,18.5v2.5h-23.6c0.8,2.9,3.5,5.3,8.2,5.3
			c2.3,0,6.2-1,8-2.9l4.5,7c-3.3,2.9-8.8,4.3-13.7,4.3C247.1,53,239.3,46.3,239.3,35.6z M256.9,26.8c-4.5,0-6.4,2.7-6.8,5.1h13.5
			C263.5,29.7,261.6,26.8,256.9,26.8z"/>
		<path class="st0" d="M277.2,52.2V19h10.5v4.1c2.3-2.7,6.4-4.9,10.3-4.9v10c-0.6-0.2-1.4-0.2-2.7-0.2c-2.7,0-6.4,1.2-7.8,3.1v21.1
			H277.2z"/>
	</g>
</g>
</svg>
